<mxfile host="Electron" modified="2023-04-03T04:17:32.551Z" agent="Mozilla/5.0 (Windows NT 10.0; Win64; x64) AppleWebKit/537.36 (KHTML, like Gecko) draw.io/21.1.2 Chrome/106.0.5249.199 Electron/21.4.3 Safari/537.36" etag="55cgUlXebYRwBlTT-4Dm" version="21.1.2" type="device">
  <diagram name="Trang-1" id="MLo7V88yLWV9khni6U0D">
    <mxGraphModel dx="870" dy="532" grid="1" gridSize="10" guides="1" tooltips="1" connect="1" arrows="1" fold="1" page="1" pageScale="1" pageWidth="850" pageHeight="1100" math="0" shadow="0">
      <root>
        <mxCell id="0" />
        <mxCell id="1" parent="0" />
        <mxCell id="99Bcs_-zShyQ9xkc_jSy-7" value="Khách hàng" style="html=1;dashed=0;whiteSpace=wrap;fillColor=#f5f5f5;strokeColor=#666666;fontColor=#333333;" vertex="1" parent="1">
          <mxGeometry x="40" y="180" width="100" height="50" as="geometry" />
        </mxCell>
        <mxCell id="99Bcs_-zShyQ9xkc_jSy-9" value="Nhà cung ứng" style="html=1;dashed=0;whiteSpace=wrap;fillColor=#f5f5f5;fontColor=#333333;strokeColor=#666666;" vertex="1" parent="1">
          <mxGeometry x="680" y="180" width="100" height="50" as="geometry" />
        </mxCell>
        <mxCell id="99Bcs_-zShyQ9xkc_jSy-18" value="0&lt;br&gt;&lt;br&gt;Xử lý của hệ thống&lt;br&gt;cửa hàng vali" style="shape=ellipse;html=1;dashed=0;whiteSpace=wrap;aspect=fixed;perimeter=ellipsePerimeter;fillColor=#f5f5f5;fontColor=#333333;strokeColor=#666666;" vertex="1" parent="1">
          <mxGeometry x="360" y="150" width="110" height="110" as="geometry" />
        </mxCell>
        <mxCell id="99Bcs_-zShyQ9xkc_jSy-21" value="" style="endArrow=classic;html=1;rounded=0;exitX=1;exitY=0.5;exitDx=0;exitDy=0;entryX=0;entryY=0.5;entryDx=0;entryDy=0;" edge="1" parent="1" source="99Bcs_-zShyQ9xkc_jSy-7" target="99Bcs_-zShyQ9xkc_jSy-18">
          <mxGeometry width="50" height="50" relative="1" as="geometry">
            <mxPoint x="200" y="250" as="sourcePoint" />
            <mxPoint x="250" y="200" as="targetPoint" />
          </mxGeometry>
        </mxCell>
        <mxCell id="99Bcs_-zShyQ9xkc_jSy-22" value="Thông tin đặt và mua vali" style="text;strokeColor=none;align=center;fillColor=none;html=1;verticalAlign=middle;whiteSpace=wrap;rounded=0;" vertex="1" parent="1">
          <mxGeometry x="170" y="170" width="150" height="30" as="geometry" />
        </mxCell>
        <mxCell id="99Bcs_-zShyQ9xkc_jSy-24" value="" style="endArrow=classic;html=1;exitX=1;exitY=1;exitDx=0;exitDy=0;entryX=0;entryY=1;entryDx=0;entryDy=0;curved=1;" edge="1" parent="1" source="99Bcs_-zShyQ9xkc_jSy-7" target="99Bcs_-zShyQ9xkc_jSy-18">
          <mxGeometry width="50" height="50" relative="1" as="geometry">
            <mxPoint x="210" y="350" as="sourcePoint" />
            <mxPoint x="260" y="300" as="targetPoint" />
            <Array as="points">
              <mxPoint x="250" y="270" />
            </Array>
          </mxGeometry>
        </mxCell>
        <mxCell id="99Bcs_-zShyQ9xkc_jSy-25" value="Thông tin thanh toán vali" style="text;strokeColor=none;align=center;fillColor=none;html=1;verticalAlign=middle;whiteSpace=wrap;rounded=0;" vertex="1" parent="1">
          <mxGeometry x="200" y="230" width="140" height="30" as="geometry" />
        </mxCell>
        <mxCell id="99Bcs_-zShyQ9xkc_jSy-26" value="" style="endArrow=classic;html=1;entryX=0.83;entryY=0;entryDx=0;entryDy=0;exitX=0;exitY=0;exitDx=0;exitDy=0;curved=1;entryPerimeter=0;" edge="1" parent="1" source="99Bcs_-zShyQ9xkc_jSy-18" target="99Bcs_-zShyQ9xkc_jSy-7">
          <mxGeometry width="50" height="50" relative="1" as="geometry">
            <mxPoint x="376.1091270347399" y="170.1091270347399" as="sourcePoint" />
            <mxPoint x="140" y="184" as="targetPoint" />
            <Array as="points">
              <mxPoint x="270" y="94" />
            </Array>
          </mxGeometry>
        </mxCell>
        <mxCell id="99Bcs_-zShyQ9xkc_jSy-27" value="hoá đơn và hợp đồng thanh toán, giao hàng" style="text;strokeColor=none;align=center;fillColor=none;html=1;verticalAlign=middle;whiteSpace=wrap;rounded=0;" vertex="1" parent="1">
          <mxGeometry x="200" y="100" width="120" height="30" as="geometry" />
        </mxCell>
        <mxCell id="99Bcs_-zShyQ9xkc_jSy-33" value="" style="endArrow=classic;html=1;entryX=1;entryY=0;entryDx=0;entryDy=0;exitX=0;exitY=0;exitDx=0;exitDy=0;curved=1;" edge="1" parent="1" source="99Bcs_-zShyQ9xkc_jSy-9" target="99Bcs_-zShyQ9xkc_jSy-18">
          <mxGeometry width="50" height="50" relative="1" as="geometry">
            <mxPoint x="550" y="120" as="sourcePoint" />
            <mxPoint x="600" y="70" as="targetPoint" />
            <Array as="points">
              <mxPoint x="530" y="140" />
            </Array>
          </mxGeometry>
        </mxCell>
        <mxCell id="99Bcs_-zShyQ9xkc_jSy-34" value="Thông tin danh sách vali" style="text;strokeColor=none;align=center;fillColor=none;html=1;verticalAlign=middle;whiteSpace=wrap;rounded=0;" vertex="1" parent="1">
          <mxGeometry x="470" y="120" width="140" height="30" as="geometry" />
        </mxCell>
        <mxCell id="99Bcs_-zShyQ9xkc_jSy-36" value="Đơn đặt mua vali&lt;span style=&quot;white-space: pre;&quot;&gt;	&lt;/span&gt;" style="text;strokeColor=none;align=center;fillColor=none;html=1;verticalAlign=middle;whiteSpace=wrap;rounded=0;" vertex="1" parent="1">
          <mxGeometry x="490" y="170" width="140" height="30" as="geometry" />
        </mxCell>
        <mxCell id="99Bcs_-zShyQ9xkc_jSy-38" value="" style="endArrow=classic;html=1;rounded=0;entryX=0;entryY=0.5;entryDx=0;entryDy=0;exitX=1;exitY=0.5;exitDx=0;exitDy=0;" edge="1" parent="1" source="99Bcs_-zShyQ9xkc_jSy-18" target="99Bcs_-zShyQ9xkc_jSy-9">
          <mxGeometry width="50" height="50" relative="1" as="geometry">
            <mxPoint x="590" y="330" as="sourcePoint" />
            <mxPoint x="640" y="280" as="targetPoint" />
          </mxGeometry>
        </mxCell>
        <mxCell id="99Bcs_-zShyQ9xkc_jSy-39" value="" style="endArrow=classic;html=1;entryX=0.927;entryY=0.809;entryDx=0;entryDy=0;exitX=0;exitY=1;exitDx=0;exitDy=0;curved=1;entryPerimeter=0;" edge="1" parent="1" source="99Bcs_-zShyQ9xkc_jSy-9" target="99Bcs_-zShyQ9xkc_jSy-18">
          <mxGeometry width="50" height="50" relative="1" as="geometry">
            <mxPoint x="696" y="280" as="sourcePoint" />
            <mxPoint x="470" y="266" as="targetPoint" />
            <Array as="points">
              <mxPoint x="630" y="270" />
              <mxPoint x="560" y="290" />
            </Array>
          </mxGeometry>
        </mxCell>
        <mxCell id="99Bcs_-zShyQ9xkc_jSy-40" value="Hoá đơn đặt mua vali" style="text;strokeColor=none;align=center;fillColor=none;html=1;verticalAlign=middle;whiteSpace=wrap;rounded=0;" vertex="1" parent="1">
          <mxGeometry x="500" y="240" width="140" height="30" as="geometry" />
        </mxCell>
        <mxCell id="99Bcs_-zShyQ9xkc_jSy-42" value="Khách hàng" style="html=1;dashed=0;whiteSpace=wrap;fillColor=#f5f5f5;strokeColor=#666666;fontColor=#333333;" vertex="1" parent="1">
          <mxGeometry x="20" y="480" width="100" height="50" as="geometry" />
        </mxCell>
        <mxCell id="99Bcs_-zShyQ9xkc_jSy-44" value="1&lt;br&gt;&lt;br&gt;Xử lý bán&amp;nbsp;" style="shape=ellipse;html=1;dashed=0;whiteSpace=wrap;aspect=fixed;perimeter=ellipsePerimeter;fillColor=#f5f5f5;fontColor=#333333;strokeColor=#666666;" vertex="1" parent="1">
          <mxGeometry x="320" y="380" width="70" height="70" as="geometry" />
        </mxCell>
        <mxCell id="99Bcs_-zShyQ9xkc_jSy-45" value="" style="endArrow=classic;html=1;rounded=0;entryX=0;entryY=0.5;entryDx=0;entryDy=0;exitX=1;exitY=0;exitDx=0;exitDy=0;" edge="1" parent="1" source="99Bcs_-zShyQ9xkc_jSy-42" target="99Bcs_-zShyQ9xkc_jSy-44">
          <mxGeometry width="50" height="50" relative="1" as="geometry">
            <mxPoint x="200" y="550" as="sourcePoint" />
            <mxPoint x="250" y="500" as="targetPoint" />
          </mxGeometry>
        </mxCell>
        <mxCell id="99Bcs_-zShyQ9xkc_jSy-46" value="Thông tin đặt và mua vali" style="text;strokeColor=none;align=center;fillColor=none;html=1;verticalAlign=middle;whiteSpace=wrap;rounded=0;" vertex="1" parent="1">
          <mxGeometry x="110" y="400" width="120" height="30" as="geometry" />
        </mxCell>
        <mxCell id="99Bcs_-zShyQ9xkc_jSy-48" value="" style="endArrow=classic;html=1;entryX=1;entryY=0.5;entryDx=0;entryDy=0;exitX=0;exitY=1;exitDx=0;exitDy=0;curved=1;" edge="1" parent="1" source="99Bcs_-zShyQ9xkc_jSy-44" target="99Bcs_-zShyQ9xkc_jSy-42">
          <mxGeometry width="50" height="50" relative="1" as="geometry">
            <mxPoint x="290" y="570" as="sourcePoint" />
            <mxPoint x="340" y="520" as="targetPoint" />
            <Array as="points">
              <mxPoint x="290" y="530" />
            </Array>
          </mxGeometry>
        </mxCell>
        <mxCell id="99Bcs_-zShyQ9xkc_jSy-49" value="hoá đơn và hợp đồng thanh toán giao hàng" style="text;strokeColor=none;align=center;fillColor=none;html=1;verticalAlign=middle;whiteSpace=wrap;rounded=0;rotation=-15;" vertex="1" parent="1">
          <mxGeometry x="160" y="470" width="150" height="30" as="geometry" />
        </mxCell>
        <mxCell id="99Bcs_-zShyQ9xkc_jSy-50" value="" style="endArrow=classic;html=1;exitX=1;exitY=1;exitDx=0;exitDy=0;entryX=0;entryY=1;entryDx=0;entryDy=0;curved=1;" edge="1" parent="1" source="99Bcs_-zShyQ9xkc_jSy-42" target="99Bcs_-zShyQ9xkc_jSy-53">
          <mxGeometry width="50" height="50" relative="1" as="geometry">
            <mxPoint x="210" y="610" as="sourcePoint" />
            <mxPoint x="260" y="560" as="targetPoint" />
            <Array as="points">
              <mxPoint x="240" y="590" />
            </Array>
          </mxGeometry>
        </mxCell>
        <mxCell id="99Bcs_-zShyQ9xkc_jSy-52" value="3&lt;br&gt;&lt;br&gt;Xử lý giao hàng&amp;nbsp;" style="shape=ellipse;html=1;dashed=0;whiteSpace=wrap;aspect=fixed;perimeter=ellipsePerimeter;fillColor=#f5f5f5;fontColor=#333333;strokeColor=#666666;" vertex="1" parent="1">
          <mxGeometry x="320" y="660" width="70" height="70" as="geometry" />
        </mxCell>
        <mxCell id="99Bcs_-zShyQ9xkc_jSy-53" value="2&lt;br&gt;&lt;br&gt;Xử lý kế toán&amp;nbsp;" style="shape=ellipse;html=1;dashed=0;whiteSpace=wrap;aspect=fixed;perimeter=ellipsePerimeter;fillColor=#f5f5f5;fontColor=#333333;strokeColor=#666666;" vertex="1" parent="1">
          <mxGeometry x="400" y="520" width="70" height="70" as="geometry" />
        </mxCell>
        <mxCell id="99Bcs_-zShyQ9xkc_jSy-54" value="Thông tin thanh toán vali" style="text;strokeColor=none;align=center;fillColor=none;html=1;verticalAlign=middle;whiteSpace=wrap;rounded=0;rotation=10;" vertex="1" parent="1">
          <mxGeometry x="200" y="540" width="150" height="30" as="geometry" />
        </mxCell>
        <mxCell id="99Bcs_-zShyQ9xkc_jSy-55" value="" style="endArrow=classic;html=1;rounded=0;entryX=0.5;entryY=0;entryDx=0;entryDy=0;exitX=1;exitY=1;exitDx=0;exitDy=0;" edge="1" parent="1" source="99Bcs_-zShyQ9xkc_jSy-44" target="99Bcs_-zShyQ9xkc_jSy-53">
          <mxGeometry width="50" height="50" relative="1" as="geometry">
            <mxPoint x="400" y="460" as="sourcePoint" />
            <mxPoint x="450" y="410" as="targetPoint" />
          </mxGeometry>
        </mxCell>
        <mxCell id="99Bcs_-zShyQ9xkc_jSy-58" value="thông tin hoá đơn và hợp đồng" style="text;strokeColor=none;align=center;fillColor=none;html=1;verticalAlign=middle;whiteSpace=wrap;rounded=0;rotation=0;" vertex="1" parent="1">
          <mxGeometry x="376" y="460" width="98.41" height="30" as="geometry" />
        </mxCell>
      </root>
    </mxGraphModel>
  </diagram>
</mxfile>
